HIERARCHY
ROOT Hips
{
	OFFSET 0.000000 89.005402 0.000000
	CHANNELS 6 Xposition Yposition Zposition Xrotation Yrotation Zrotation
	JOINT Spine
	{
		OFFSET 0.116900 10.681000 0.373400
		CHANNELS 3 Xrotation Yrotation Zrotation
		JOINT Spine1
		{
			OFFSET 0.000000 13.840401 0.053500
			CHANNELS 3 Xrotation Yrotation Zrotation
			JOINT Spine2
			{
				OFFSET 0.000000 14.712700 -0.366200
				CHANNELS 3 Xrotation Yrotation Zrotation
				JOINT Neck
				{
					OFFSET 0.000000 35.415497 -3.314200
					CHANNELS 3 Xrotation Yrotation Zrotation
					JOINT Head
					{
						OFFSET 0.000000 16.899200 1.218300
						CHANNELS 3 Xrotation Yrotation Zrotation
						JOINT HeadTop_End
						{
							OFFSET 0.000000 22.206207 2.192500
							CHANNELS 3 Xrotation Yrotation Zrotation
							End Site
							{
								OFFSET 0.000000 22.314178 0.000000
							}
						}
					}
				}
				JOINT LeftShoulder
				{
					OFFSET 12.896400 26.716293 -4.548400
					CHANNELS 3 Xrotation Yrotation Zrotation
					JOINT LeftArm
					{
						OFFSET 19.027000 -4.857010 -1.718400
						CHANNELS 3 Xrotation Yrotation Zrotation
						JOINT LeftForeArm
						{
							OFFSET 24.179897 0.000000 0.000000
							CHANNELS 3 Xrotation Yrotation Zrotation
							JOINT LeftHand
							{
								OFFSET 27.156403 0.000000 0.000000
								CHANNELS 3 Xrotation Yrotation Zrotation
								JOINT LeftHandIndex1
								{
									OFFSET 16.441200 0.000000 0.000000
									CHANNELS 3 Xrotation Yrotation Zrotation
									JOINT LeftHandIndex2
									{
										OFFSET 4.821899 0.000000 0.000000
										CHANNELS 3 Xrotation Yrotation Zrotation
										JOINT LeftHandIndex3
										{
											OFFSET 6.386497 0.000000 0.000000
											CHANNELS 3 Xrotation Yrotation Zrotation
											JOINT LeftHandIndex4
											{
												OFFSET 5.188988 0.000000 0.000000
												CHANNELS 3 Xrotation Yrotation Zrotation
												End Site
												{
													OFFSET -0.178703 5.185913 0.000177
												}
											}
										}
									}
								}
								JOINT LeftHandThumb1
								{
									OFFSET 6.534897 -5.032593 5.900300
									CHANNELS 3 Xrotation Yrotation Zrotation
									JOINT LeftHandThumb2
									{
										OFFSET 3.818176 -2.204422 2.204423
										CHANNELS 3 Xrotation Yrotation Zrotation
										JOINT LeftHandThumb3
										{
											OFFSET 3.252098 -1.877594 1.877601
											CHANNELS 3 Xrotation Yrotation Zrotation
											JOINT LeftHandThumb4
											{
												OFFSET 5.251778 -3.032120 3.032117
												CHANNELS 3 Xrotation Yrotation Zrotation
												End Site
												{
													OFFSET 0.000023 6.780014 0.000000
												}
											}
										}
									}
								}
							}
						}
					}
				}
				JOINT RightShoulder
				{
					OFFSET -12.896300 26.716293 -4.548400
					CHANNELS 3 Xrotation Yrotation Zrotation
					JOINT RightArm
					{
						OFFSET -19.027000 -4.857010 -1.718400
						CHANNELS 3 Xrotation Yrotation Zrotation
						JOINT RightForeArm
						{
							OFFSET -24.179897 0.000000 0.000000
							CHANNELS 3 Xrotation Yrotation Zrotation
							JOINT RightHand
							{
								OFFSET -27.156403 0.000000 0.000000
								CHANNELS 3 Xrotation Yrotation Zrotation
								JOINT RightHandThumb1
								{
									OFFSET -6.591202 -4.852203 5.988100
									CHANNELS 3 Xrotation Yrotation Zrotation
									JOINT RightHandThumb2
									{
										OFFSET -3.818176 -2.204422 2.204423
										CHANNELS 3 Xrotation Yrotation Zrotation
										JOINT RightHandThumb3
										{
											OFFSET -3.252098 -1.877594 1.877601
											CHANNELS 3 Xrotation Yrotation Zrotation
											JOINT RightHandThumb4
											{
												OFFSET -5.251778 -3.032120 3.032117
												CHANNELS 3 Xrotation Yrotation Zrotation
												End Site
												{
													OFFSET -0.000023 6.780014 0.000000
												}
											}
										}
									}
								}
								JOINT RightHandIndex1
								{
									OFFSET -16.029404 0.000000 0.000000
									CHANNELS 3 Xrotation Yrotation Zrotation
									JOINT RightHandIndex2
									{
										OFFSET -5.213303 0.000000 0.000000
										CHANNELS 3 Xrotation Yrotation Zrotation
										JOINT RightHandIndex3
										{
											OFFSET -6.386528 0.000000 0.000000
											CHANNELS 3 Xrotation Yrotation Zrotation
											JOINT RightHandIndex4
											{
												OFFSET -5.189026 0.000000 0.000000
												CHANNELS 3 Xrotation Yrotation Zrotation
												End Site
												{
													OFFSET 0.236702 5.183624 0.001972
												}
											}
										}
									}
								}
							}
						}
					}
				}
			}
		}
	}
	JOINT LeftUpLeg
	{
		OFFSET 14.073000 -7.904099 -1.463000
		CHANNELS 3 Xrotation Yrotation Zrotation
		JOINT LeftLeg
		{
			OFFSET -0.109806 -34.073280 4.093200
			CHANNELS 3 Xrotation Yrotation Zrotation
			JOINT LeftFoot
			{
				OFFSET 0.109806 -29.899420 -6.319000
				CHANNELS 3 Xrotation Yrotation Zrotation
				JOINT LeftToeBase
				{
					OFFSET 1.551100 -14.988700 20.535801
					CHANNELS 3 Xrotation Yrotation Zrotation
					JOINT LeftToe_End
					{
						OFFSET 0.221200 0.570800 13.248301
						CHANNELS 3 Xrotation Yrotation Zrotation
						End Site
						{
							OFFSET 0.000000 13.262435 0.000000
						}
					}
				}
			}
		}
	}
	JOINT RightUpLeg
	{
		OFFSET -13.839300 -7.904099 -1.463000
		CHANNELS 3 Xrotation Yrotation Zrotation
		JOINT RightLeg
		{
			OFFSET 0.109694 -34.073219 4.093300
			CHANNELS 3 Xrotation Yrotation Zrotation
			JOINT RightFoot
			{
				OFFSET -0.109694 -29.899384 -6.319200
				CHANNELS 3 Xrotation Yrotation Zrotation
				JOINT RightToeBase
				{
					OFFSET -1.551100 -14.988700 20.535801
					CHANNELS 3 Xrotation Yrotation Zrotation
					JOINT RightToe_End
					{
						OFFSET -0.221200 0.570900 13.248299
						CHANNELS 3 Xrotation Yrotation Zrotation
						End Site
						{
							OFFSET 0.000000 13.262440 0.000000
						}
					}
				}
			}
		}
	}
}
MOTION
Frames: 4
Frame Time: 0.033333
9.967251 60.944954 40.911198 53.637926 2.877658 -2.076135 -3.406446 0.020492 -0.435107 -6.813705 0.062342 0.243452 -6.813693 0.062345 0.243451 0.767548 4.359677 -6.586247 -14.018410 -8.931476 -0.915256 0.000001 -0.000000 -0.000000 11.692867 -21.788370 26.163224 -57.413279 -38.745276 -27.817615 7.711698 -44.657225 12.066470 14.424238 18.072628 75.968998 -3.249123 -3.487683 -45.487694 -11.741038 -5.662296 -117.786298 0.000009 0.000000 -0.000001 -0.000002 0.000000 -0.000001 -22.329922 -10.232725 -0.665751 -13.008771 33.638808 5.466843 -0.000002 0.000010 0.000000 -0.000003 -0.000000 0.000001 3.995250 10.109649 -20.741994 -62.285362 31.372883 37.496202 -0.408150 26.700347 -6.968720 29.036951 -3.473015 -72.707412 -31.480567 10.386563 -14.209258 -13.008704 -33.638832 -5.466810 0.000009 0.000010 -0.000009 -0.000001 0.000003 0.000002 -3.485971 1.851576 32.874421 -8.875873 5.007762 106.188186 0.000005 0.000009 -0.000007 0.000001 -0.000001 -0.000001 -59.733884 2.850471 -8.275663 87.994345 27.335495 1.488430 -43.782356 12.596688 -20.317067 -44.289969 0.722570 -10.080928 0.000000 0.000000 0.000000 -31.894740 -4.972712 -3.797513 48.781669 -17.308481 -1.192221 29.792168 -0.893112 -0.240628 18.492611 -27.322937 -54.894459 -0.000002 -0.000002 0.000000 
10.016778 61.778748 42.568268 53.492307 3.282821 -1.958965 -3.325426 -0.093381 -0.552615 -6.649619 -0.023802 0.351802 -6.649622 -0.023801 0.351802 0.944330 4.321256 -6.476418 -14.116170 -8.856441 -1.058055 -0.000001 0.000000 0.000000 11.696404 -22.010112 26.085532 -56.894827 -38.448931 -28.029418 8.015960 -44.708721 12.035639 14.139981 18.156719 77.127282 -3.249125 -3.487682 -45.487694 -11.741037 -5.662295 -117.786298 0.000008 0.000000 -0.000002 -0.000001 -0.000000 -0.000000 -22.329927 -10.232724 -0.665750 -13.008775 33.638815 5.466840 -0.000000 0.000013 0.000002 0.000001 0.000002 0.000002 4.007841 10.141498 -20.820568 -62.429404 31.515261 38.125061 -0.337097 26.055454 -6.811099 29.308297 -3.239783 -73.677817 -31.480567 10.386561 -14.209254 -13.008704 -33.638835 -5.466811 0.000011 0.000010 -0.000010 0.000001 -0.000001 0.000003 -3.485971 1.851575 32.874424 -8.875873 5.007762 106.188179 0.000005 0.000011 -0.000007 -0.000000 -0.000001 -0.000000 -56.172490 2.066675 -8.963153 83.334838 28.771666 1.279475 -43.987456 12.210397 -19.902205 -42.768083 0.385143 -10.764277 0.000001 0.000000 0.000001 -38.615270 -3.995461 -3.952423 58.341277 -15.620463 -1.065543 23.189921 -0.281150 2.620515 22.374129 -30.554366 -54.602796 0.000003 -0.000001 0.000000 
9.993207 62.617142 44.287346 53.537021 3.536636 -1.819820 -3.262694 -0.222979 -0.655563 -6.521079 -0.125186 0.403482 -6.521086 -0.125188 0.403482 1.016132 4.256974 -6.320278 -14.201860 -8.773501 -1.229384 0.000001 0.000000 -0.000000 11.676456 -22.076642 25.999148 -56.473995 -38.064354 -28.293750 8.382327 -44.905687 12.190143 14.084315 18.226537 78.062321 -3.249123 -3.487683 -45.487687 -11.741039 -5.662297 -117.786298 0.000011 -0.000000 -0.000001 -0.000001 0.000000 -0.000000 -22.329920 -10.232725 -0.665751 -13.008775 33.638811 5.466841 -0.000000 0.000014 0.000002 0.000002 0.000002 0.000001 4.022931 10.186109 -20.889159 -62.613451 31.715772 38.812816 -0.284089 25.526321 -6.664339 29.415374 -3.103813 -74.680926 -31.480574 10.386562 -14.209254 -13.008710 -33.638832 -5.466809 0.000012 0.000006 -0.000008 -0.000001 -0.000001 0.000001 -3.485970 1.851576 32.874424 -8.875874 5.007762 106.188186 0.000005 0.000009 -0.000003 0.000000 -0.000001 -0.000001 -52.902588 1.255354 -9.329189 78.607097 29.899157 1.056592 -43.726325 11.745249 -19.509208 -41.595435 0.099073 -11.341743 0.000001 -0.000002 -0.000000 -46.346003 -2.985096 -4.282467 67.631468 -13.976512 -1.030042 17.249723 -0.059336 5.327797 26.084885 -33.096535 -54.515660 -0.000000 0.000001 0.000003 
9.905183 63.313591 45.974232 53.747127 3.646265 -1.697233 -3.221471 -0.364353 -0.741437 -6.434887 -0.214723 0.417177 -6.434886 -0.214723 0.417176 0.980769 4.145753 -6.099313 -14.256860 -8.694248 -1.416682 0.000000 0.000000 0.000000 11.652769 -21.979055 25.968325 -56.212436 -37.638734 -28.560306 8.660705 -45.174755 12.446580 14.235479 18.229961 78.684292 -3.249123 -3.487682 -45.487690 -11.741038 -5.662296 -117.786298 0.000008 -0.000000 -0.000001 -0.000002 -0.000000 -0.000000 -22.329924 -10.232725 -0.665752 -13.008776 33.638808 5.466843 0.000002 0.000011 0.000004 0.000002 -0.000001 -0.000001 4.028558 10.210907 -20.919973 -62.897846 32.024756 39.464874 -0.259525 25.056937 -6.530145 29.415282 -3.033499 -75.547575 -31.480571 10.386565 -14.209257 -13.008705 -33.638842 -5.466811 0.000011 0.000008 -0.000006 0.000001 0.000001 -0.000001 -3.485969 1.851577 32.874428 -8.875871 5.007762 106.188179 0.000006 0.000009 -0.000005 0.000001 -0.000000 0.000000 -50.081611 0.595860 -9.332122 74.344936 30.491969 0.866381 -43.192258 11.315216 -19.177925 -40.867283 -0.101073 -11.744935 -0.000001 0.000000 0.000000 -55.149191 -2.016166 -4.513025 76.310657 -12.209986 -0.891352 12.620926 -0.140104 6.462296 31.065927 -35.779461 -53.156378 -0.000003 -0.000002 0.000001 
